<svg id="ecW2uKeiZAb1" xmlns="http://www.w3.org/2000/svg" xmlns:xlink="http://www.w3.org/1999/xlink" viewBox="0 0 640 640" shape-rendering="geometricPrecision" text-rendering="geometricPrecision" style="background-color:#fff"><defs><linearGradient id="ecW2uKeiZAb2-stroke" x1="0" y1="0.5" x2="1" y2="0.5" spreadMethod="pad" gradientUnits="objectBoundingBox" gradientTransform="translate(0 0)"><stop id="ecW2uKeiZAb2-stroke-0" offset="0%" stop-color="#8fc2ff"/><stop id="ecW2uKeiZAb2-stroke-1" offset="100%" stop-color="#fff"/></linearGradient></defs><path d="M220.914252,431.101285c90.2536,15.239556,161.417616,9.003373,184.99156-36.905159s-10.50092-83.273885-59.159254-128.330123-105.616875-169.530414-73.34309-182.137362s45.67567,47.772194,65.624815,61.451608c7.875866,6.042797,15.085439,2.615719,16.734674.966484s-.973821-5.494419-6.966995-14.832957-11.197352-25.187854-13.035023-33.261784-8.540189-19.327793-11.23709-14.383474s4.944319,22.474177,13.709249,20.676243s18.611023-7.022038,5.327031-33.179158-66.278046-52.2844-102.764437-16.49967-15.43655,120.685754,14.734889,178.221986s70.61553,102.487246,83.570615,102.868279-31.730804-71.339778-111.978432-83.640509-204.158148-4.205912-221.923411-24.12454s89.277642-11.045052,130.831092,42.969035s58.048709,105.188894,134.489288,116.390579s50.053405-53.601311-7.7429-85.126568-253.846327-37.402494-253.846327-37.402494s77.082461,142.497371,211.983746,166.279584Z" transform="translate(92.589193 80.626306)" fill="none" stroke="url(#ecW2uKeiZAb2-stroke)" stroke-width="5" stroke-miterlimit="36" stroke-dashoffset="2659.74" stroke-dasharray="2659.74"/><polygon points="0,-64 18.809128,-25.888544 60.867617,-19.777088 30.433809,9.888544 37.618256,51.777088 0,32 -37.618256,51.777088 -30.433809,9.888544 -60.867617,-19.777088 -18.809128,-25.888544 0,-64" transform="translate(259.132383 234)" fill="#070b2c" stroke-width="0"/><polygon points="0,-19.402068 5.702125,-7.848301 18.452463,-5.995569 9.226232,2.997784 11.40425,15.696603 0,9.701034 -11.40425,15.696603 -9.226232,2.997784 -18.452463,-5.995569 -5.702125,-7.848301 0,-19.402068" transform="translate(501.314876 123.171544)" fill="rgba(81,99,135,0.96)" stroke-width="0"/><path d="M43.46614,419.26381l42.05849,6.11146-13.78266,13.43478c21.27128-.66601,43.78426-1.02336,67.08145-1.02336c131.04431,0,237.27671,11.30637,237.27671,25.25349s-108.9557,58.11217-240,58.11217c-27.42573,0-51.04139-33.35391-75.5472-34.26492l11.18904-4.22184l4.35816,8.48676c-10.64944-.50945-55.33303-6.16681-65.079-6.83118l-23.98237,12.60828l2.44644-14.26386c-53.64854-4.62999-87.93847-11.7015-87.93847-19.62541h-.00002c0-7.59475,31.5003-14.40645,81.35409-19.0359l-19.1114-18.62901l42.05849-6.11146l18.80913-38.11146l18.80912,38.11146Z" transform="translate(3.89987 58.84765)" fill="#041027" stroke-width="0"/><polygon points="0,-23.148946 6.803305,-9.363945 22.015956,-7.153418 11.007978,3.576709 13.606609,18.727891 0,11.574473 -13.606609,18.727891 -11.007978,3.576709 -22.015956,-7.153418 -6.803305,-9.363945 0,-23.148946" transform="translate(41.492614 42.150231)" fill="#982020" stroke-width="0"/><ellipse rx="140" ry="148.687573" transform="translate(142.72329 302.559355)" fill="#edded2" stroke-width="0"/><ellipse rx="130" ry="95" transform="matrix(1.769231 0 0 2.157895 10 211.760326)" fill="#7ea6f6" stroke-width="0"/></svg>